<?xml version="1.0" encoding="UTF-8"?>
<svg id="Layer_2" data-name="Layer 2" xmlns="http://www.w3.org/2000/svg" viewBox="0 0 259.52 283">
  <defs>
    <style>
      .cls-1 {
        fill: #fff;
        fill-rule: evenodd;
        stroke-width: 0px;
      }
    </style>
  </defs>
  <g id="Layer_1-2" data-name="Layer 1">
    <path class="cls-1" d="M163.43,94.51c-3.35-3.51-7.28-6.5-11.65-8.81-1.43-6.81-1.22-16.39.94-26.59,3.9-18.42,12.71-31.91,19.66-30.13,6.96,1.78,9.43,18.15,5.52,36.57-2.98,14.04-8.8,25.21-14.48,28.95M113.21,83.4c-5.89,2.26-11.18,5.68-15.57,9.96-3.63-8.32-8-16.11-13.12-23.38,5.02-5.82,9.01-12.79,11.98-20.9,1.61-4.54,4-6.09,6.19-5.55,1.59.39,3.98,1.84,4.97,4.96,3.84,11.79,5.69,23.42,5.55,34.91h0ZM129.97,80.32c-2.43,0-4.81.19-7.13.54-1.31-16.78-4.81-31.46-10.48-44.04-3.74-8.3-9.91-21.02-19.8-22.86-6.69-1.24-12.93,2.88-17.9,9.49-4.32,5.75-7.68,13.4-9.53,21.05-2.13,8.79-2.54,29.15,2.92,36.18,2.69,3.47,6.58,2.21,11.66-3.76,5.7,8.62,9.86,16.24,12.49,22.86-4.92,7.05-7.8,15.55-7.8,24.7v.06c13.71,2.11,28.24,3.24,43.27,3.24,16.72,0,32.81-1.4,47.85-3.99v.03c-.1-6.63-1.71-12.92-4.51-18.54,7.13-9.23,13.67-24.42,17.48-42.34,6.73-31.57,2.47-59.63-9.51-62.67-11.98-3.05-27.15,20.07-33.87,51.63-2.27,10.67-3.29,20.93-3.18,29.96-3.81-1.01-7.82-1.54-11.96-1.54h0Z"/>
    <path class="cls-1" d="M68.88,233.19c-.08,2.26-.18,4.42-.31,6.46-.46,7.03,3.88,5.42,10.63,7.44,34.21,10.23,67.98,10.12,101.32-.33,6.34-1.98,10.47.24,10.47-6.4v-7.17c-41.23,11.25-81.94,11.25-122.11,0M83.48,104.59c-19.29,3.17-31.81,8.27-31.81,14.02,0,.29.04.58.1.87,2.19,19.69,3.18,36.42,2.97,50.17-1.48,13.32,1.01,31.06,1.38,44.84C18.49,220.71-1.88,232.1.14,245.29c3.59,23.45,41.31,31.33,76.71,34.63,44.31,4.13,64.21,4.2,108.92-.3,34.48-3.47,70.13-11.55,73.62-34.33,2.02-13.18-18.35-24.57-55.97-30.79.44-16.5.71-28.9.98-38.47.56-19.18,1.14-36.85,3.36-56.52.07-.3.1-.6.1-.89,0-5.6-11.89-10.59-30.35-13.77,1.26,2.75,2.27,5.64,3,8.63,8.38,2.06,13.37,4.65,13.37,7.46,0,6.75-28.71,12.22-64.12,12.22s-64.12-5.47-64.12-12.22c0-2.97,5.56-5.69,14.81-7.81.75-2.96,1.76-5.82,3.03-8.54h0Z"/>
  </g>
</svg>